#!OML:ASF F:\VICON\USERDATA\INSTALL\rory3\rory3.ASF
:FULLY-SPECIFIED
:DEGREES
248
root 1.20996 14.2585 -3.60886 389.649 -43.4636 355.635
lowerback 31.2559 2.68695 3.96028
upperback 10.4708 4.03784 1.00273
thorax -4.99405 1.7603 -2.51046
lowerneck -12.002 -0.548693 -4.11664
upperneck 31.3553 2.3451 -7.85166
head 12.4888 -0.476812 -1.9656
rclavicle 1.35174e-014 5.12864e-014
rhumerus -37.2653 47.7113 -70.78
rradius 95.6118
rwrist 37.2629
rhand -63.948 21.1025
rfingers 7.12502
rthumb -35.9017 -5.23811
lclavicle 1.35174e-014 5.12864e-014
lhumerus -28.1537 -50.8477 78.0539
lradius 85.2343
lwrist -16.0415
lhand -51.5905 20.8849
lfingers 7.12502
lthumb -24.1149 49.3893
rfemur -80.4897 -16.1491 17.5148
rtibia 76.319
rfoot -14.135 10.942
rtoes -13.5194
lfemur -79.5342 14.7905 -14.3725
ltibia 81.5
lfoot -23.7998 -4.72469
ltoes -22.384
249
root 1.23863 14.1095 -3.63313 389.703 -43.5137 355.795
lowerback 31.3581 2.6833 3.86148
upperback 10.4911 4.02398 1.23506
thorax -5.04516 1.74467 -2.19579
lowerneck -11.5033 -0.589825 -4.57561
upperneck 31.0789 2.31228 -7.78967
head 12.2701 -0.515238 -1.85267
rclavicle -3.33958e-014 -1.00187e-013
rhumerus -37.727 47.6197 -70.325
rradius 96.7216
rwrist 37.6213
rhand -64.2559 21.2668
rfingers 7.12502
rthumb -36.1933 -5.00198
lclavicle -3.33958e-014 -1.00187e-013
lhumerus -28.6577 -49.9744 78.4736
lradius 86.178
lwrist -16.1655
lhand -51.6479 20.2506
lfingers 7.12502
lthumb -24.1699 48.7478
rfemur -81.8226 -16.4106 17.5083
rtibia 77.5855
rfoot -14.1482 11.1269
rtoes -13.4798
lfemur -80.9348 15.2227 -14.8726
ltibia 82.8594
lfoot -24.0661 -5.02081
ltoes -22.7508
250
root 1.26483 13.9752 -3.63597 389.492 -43.849 355.925
lowerback 31.6294 2.59399 3.9674
upperback 10.6079 3.92718 1.13274
thorax -5.02289 1.69848 -2.34553
lowerneck -11.3477 -0.536818 -4.63493
upperneck 31.051 2.35662 -7.71055
head 12.2252 -0.489406 -1.80403
rclavicle -5.56597e-015 6.12257e-014
rhumerus -38.1237 47.4422 -70.2408
rradius 97.7102
rwrist 38.1019
rhand -64.4501 21.2146
rfingers 7.12502
rthumb -36.3773 -5.00835
lclavicle -5.56597e-015 6.12257e-014
lhumerus -29.1613 -49.1092 78.455
lradius 87.2042
lwrist -16.1874
lhand -51.7204 20.0551
lfingers 7.12502
lthumb -24.2394 48.5431
rfemur -82.7491 -16.5165 17.294
rtibia 78.806
rfoot -14.1488 11.3858
rtoes -13.0573
lfemur -81.8152 15.6843 -15.3754
ltibia 84.2197
lfoot -24.4899 -4.95528
ltoes -23.1598
251
root 1.29708 13.871 -3.64519 389.281 -44.091 356.112
lowerback 31.8545 2.61348 3.9127
upperback 10.7201 3.93365 1.20611
thorax -5.00541 1.69611 -2.24101
lowerneck -11.2757 -0.589101 -4.74977
upperneck 31.1494 2.30526 -7.7121
head 12.2499 -0.527219 -1.79416
rclavicle -1.90833e-014 2.18663e-014
rhumerus -38.5804 47.1889 -69.8772
rradius 98.6899
rwrist 38.7494
rhand -64.7422 21.3521
rfingers 7.12502
rthumb -36.6537 -4.80106
lclavicle -1.90833e-014 2.18663e-014
lhumerus -29.5125 -48.3227 78.6454
lradius 88.0278
lwrist -16.2722
lhand -51.7813 19.5772
lfingers 7.12502
lthumb -24.2978 48.0573
rfemur -83.5729 -16.6581 17.1156
rtibia 79.8763
rfoot -14.2892 11.4657
rtoes -13.6789
lfemur -82.5337 15.7654 -15.6754
ltibia 85.3816
lfoot -24.8507 -4.90356
ltoes -22.0618
252
root 1.33451 13.7537 -3.69471 389.356 -43.8718 356.522
lowerback 31.744 2.35955 3.99681
upperback 10.7323 3.63468 1.08845
thorax -4.94485 1.5621 -2.31426
lowerneck -11.2605 -0.550445 -4.54321
upperneck 31.1586 2.28707 -7.64742
head 12.2463 -0.504484 -1.80778
rclavicle 8.42847e-014 -2.42517e-014
rhumerus -38.7807 46.9373 -69.8749
rradius 99.4647
rwrist 39.4553
rhand -65.2446 22.2445
rfingers 7.12502
rthumb -37.129 -3.7865
lclavicle 8.42847e-014 -2.42517e-014
lhumerus -29.5756 -47.4978 78.1085
lradius 88.7582
lwrist -16.6181
lhand -51.6158 18.9033
lfingers 7.12502
lthumb -24.1392 47.4046
rfemur -85.0163 -17.0445 17.129
rtibia 80.9676
rfoot -14.3252 11.3627
rtoes -14.114
lfemur -83.9814 15.5818 -16.023
ltibia 86.4099
lfoot -24.9388 -4.91274
ltoes -21.7856
253
root 1.36935 13.6786 -3.69838 388.956 -44.2095 356.556
lowerback 32.2125 2.33965 4.08156
upperback 10.8711 3.62594 1.05167
thorax -4.98616 1.55247 -2.41555
lowerneck -11.051 -0.533478 -4.44388
upperneck 31.1219 2.26655 -7.66593
head 12.186 -0.499086 -1.83175
rclavicle -2.06736e-014 -6.63941e-014
rhumerus -39.3306 46.7801 -69.8256
rradius 100.307
rwrist 39.9601
rhand -65.7774 24.0893
rfingers 7.12502
rthumb -37.6326 -1.80897
lclavicle -2.06736e-014 -6.63941e-014
lhumerus -29.9597 -46.7025 78.1493
lradius 89.4428
lwrist -16.9785
lhand -51.6201 18.6908
lfingers 7.12502
lthumb -24.1433 47.1915
rfemur -85.2832 -17.0261 16.9085
rtibia 81.7519
rfoot -14.4508 11.5016
rtoes -14.1059
lfemur -84.1214 15.6761 -16.116
ltibia 87.337
lfoot -25.322 -4.52767
ltoes -22.1776
254
root 1.40223 13.5781 -3.72924 388.985 -44.294 356.596
lowerback 32.4524 2.52495 3.78181
upperback 10.846 3.80064 1.37164
thorax -5.15859 1.61684 -1.95809
lowerneck -10.9022 -0.632118 -4.43136
upperneck 31.1598 2.1751 -7.89199
head 12.1733 -0.562404 -1.93204
rclavicle -5.24792e-014 5.725e-014
rhumerus -39.9289 46.695 -69.4
rradius 101.135
rwrist 40.4091
rhand -66.2369 24.5331
rfingers 7.12502
rthumb -38.0667 -1.24794
lclavicle -5.24792e-014 5.725e-014
lhumerus -30.4576 -46.0051 78.7113
lradius 90.0757
lwrist -17.0775
lhand -51.8368 18.696
lfingers 7.12502
lthumb -24.351 47.1689
rfemur -86.2399 -17.1065 16.9919
rtibia 82.5985
rfoot -14.7055 11.2051
rtoes -15.4742
lfemur -84.9878 15.7409 -16.1749
ltibia 88.2752
lfoot -25.4492 -4.52276
ltoes -22.1008
